<mxfile host="app.diagrams.net" agent="Mozilla/5.0 (Windows NT 10.0; Win64; x64) AppleWebKit/537.36 (KHTML, like Gecko) Chrome/130.0.0.0 Safari/537.36    " version="24.8.0">
  <diagram id="C5RBs43oDa-KdzZeNtuy" name="Page-1">
    <mxGraphModel dx="1630" dy="705" grid="1" gridSize="10" guides="1" tooltips="1" connect="1" arrows="1" fold="1" page="1" pageScale="1" pageWidth="827" pageHeight="1169" math="0" shadow="0">
      <root>
        <mxCell id="WIyWlLk6GJQsqaUBKTNV-0" />
        <mxCell id="WIyWlLk6GJQsqaUBKTNV-1" parent="WIyWlLk6GJQsqaUBKTNV-0" />
        <mxCell id="UJgr32r0x14f-edrb7Fj-38" value="View" style="swimlane;whiteSpace=wrap;html=1;" parent="WIyWlLk6GJQsqaUBKTNV-1" vertex="1">
          <mxGeometry x="1170" y="100" width="360" height="570" as="geometry" />
        </mxCell>
        <mxCell id="UJgr32r0x14f-edrb7Fj-39" value="Abstract_view" style="swimlane;fontStyle=0;align=center;verticalAlign=top;childLayout=stackLayout;horizontal=1;startSize=26;horizontalStack=0;resizeParent=1;resizeLast=0;collapsible=1;marginBottom=0;rounded=0;shadow=0;strokeWidth=1;" parent="UJgr32r0x14f-edrb7Fj-38" vertex="1">
          <mxGeometry x="200" y="139.5" width="160" height="138" as="geometry">
            <mxRectangle x="340" y="380" width="170" height="26" as="alternateBounds" />
          </mxGeometry>
        </mxCell>
        <mxCell id="UJgr32r0x14f-edrb7Fj-40" value="_session : SESSION" style="text;align=left;verticalAlign=top;spacingLeft=4;spacingRight=4;overflow=hidden;rotatable=0;points=[[0,0.5],[1,0.5]];portConstraint=eastwest;" parent="UJgr32r0x14f-edrb7Fj-39" vertex="1">
          <mxGeometry y="26" width="160" height="26" as="geometry" />
        </mxCell>
        <mxCell id="UJgr32r0x14f-edrb7Fj-41" value="" style="line;html=1;strokeWidth=1;align=left;verticalAlign=middle;spacingTop=-1;spacingLeft=3;spacingRight=3;rotatable=0;labelPosition=right;points=[];portConstraint=eastwest;" parent="UJgr32r0x14f-edrb7Fj-39" vertex="1">
          <mxGeometry y="52" width="160" height="8" as="geometry" />
        </mxCell>
        <mxCell id="UJgr32r0x14f-edrb7Fj-107" value="afficher_info_menu" style="text;align=left;verticalAlign=top;spacingLeft=4;spacingRight=4;overflow=hidden;rotatable=0;points=[[0,0.5],[1,0.5]];portConstraint=eastwest;" parent="UJgr32r0x14f-edrb7Fj-39" vertex="1">
          <mxGeometry y="60" width="160" height="26" as="geometry" />
        </mxCell>
        <mxCell id="UJgr32r0x14f-edrb7Fj-108" value="choisir" style="text;align=left;verticalAlign=top;spacingLeft=4;spacingRight=4;overflow=hidden;rotatable=0;points=[[0,0.5],[1,0.5]];portConstraint=eastwest;" parent="UJgr32r0x14f-edrb7Fj-39" vertex="1">
          <mxGeometry y="86" width="160" height="26" as="geometry" />
        </mxCell>
        <mxCell id="UJgr32r0x14f-edrb7Fj-109" value="revenir_arriere" style="text;align=left;verticalAlign=top;spacingLeft=4;spacingRight=4;overflow=hidden;rotatable=0;points=[[0,0.5],[1,0.5]];portConstraint=eastwest;" parent="UJgr32r0x14f-edrb7Fj-39" vertex="1">
          <mxGeometry y="112" width="160" height="26" as="geometry" />
        </mxCell>
        <mxCell id="VLZR5v5O_BQbN2B3aegR-58" style="edgeStyle=orthogonalEdgeStyle;rounded=0;orthogonalLoop=1;jettySize=auto;html=1;entryX=0.5;entryY=0;entryDx=0;entryDy=0;" parent="UJgr32r0x14f-edrb7Fj-38" source="UJgr32r0x14f-edrb7Fj-42" target="UJgr32r0x14f-edrb7Fj-45" edge="1">
          <mxGeometry relative="1" as="geometry" />
        </mxCell>
        <mxCell id="UJgr32r0x14f-edrb7Fj-42" value="accueil_view" style="swimlane;fontStyle=0;align=center;verticalAlign=top;childLayout=stackLayout;horizontal=1;startSize=26;horizontalStack=0;resizeParent=1;resizeLast=0;collapsible=1;marginBottom=0;rounded=0;shadow=0;strokeWidth=1;" parent="UJgr32r0x14f-edrb7Fj-38" vertex="1">
          <mxGeometry x="20" y="40" width="160" height="86" as="geometry">
            <mxRectangle x="340" y="380" width="170" height="26" as="alternateBounds" />
          </mxGeometry>
        </mxCell>
        <mxCell id="UJgr32r0x14f-edrb7Fj-44" value="" style="line;html=1;strokeWidth=1;align=left;verticalAlign=middle;spacingTop=-1;spacingLeft=3;spacingRight=3;rotatable=0;labelPosition=right;points=[];portConstraint=eastwest;" parent="UJgr32r0x14f-edrb7Fj-42" vertex="1">
          <mxGeometry y="26" width="160" height="8" as="geometry" />
        </mxCell>
        <mxCell id="VLZR5v5O_BQbN2B3aegR-35" value="choix()" style="text;align=left;verticalAlign=top;spacingLeft=4;spacingRight=4;overflow=hidden;rotatable=0;points=[[0,0.5],[1,0.5]];portConstraint=eastwest;" parent="UJgr32r0x14f-edrb7Fj-42" vertex="1">
          <mxGeometry y="34" width="160" height="26" as="geometry" />
        </mxCell>
        <mxCell id="VLZR5v5O_BQbN2B3aegR-39" value="afficher_info():str" style="text;align=left;verticalAlign=top;spacingLeft=4;spacingRight=4;overflow=hidden;rotatable=0;points=[[0,0.5],[1,0.5]];portConstraint=eastwest;" parent="UJgr32r0x14f-edrb7Fj-42" vertex="1">
          <mxGeometry y="60" width="160" height="26" as="geometry" />
        </mxCell>
        <mxCell id="UJgr32r0x14f-edrb7Fj-45" value="connexion_view" style="swimlane;fontStyle=0;align=center;verticalAlign=top;childLayout=stackLayout;horizontal=1;startSize=26;horizontalStack=0;resizeParent=1;resizeLast=0;collapsible=1;marginBottom=0;rounded=0;shadow=0;strokeWidth=1;" parent="UJgr32r0x14f-edrb7Fj-38" vertex="1">
          <mxGeometry x="20" y="160" width="160" height="97" as="geometry">
            <mxRectangle x="340" y="380" width="170" height="26" as="alternateBounds" />
          </mxGeometry>
        </mxCell>
        <mxCell id="UJgr32r0x14f-edrb7Fj-47" value="" style="line;html=1;strokeWidth=1;align=left;verticalAlign=middle;spacingTop=-1;spacingLeft=3;spacingRight=3;rotatable=0;labelPosition=right;points=[];portConstraint=eastwest;" parent="UJgr32r0x14f-edrb7Fj-45" vertex="1">
          <mxGeometry y="26" width="160" height="8" as="geometry" />
        </mxCell>
        <mxCell id="VLZR5v5O_BQbN2B3aegR-36" value="choix()" style="text;align=left;verticalAlign=top;spacingLeft=4;spacingRight=4;overflow=hidden;rotatable=0;points=[[0,0.5],[1,0.5]];portConstraint=eastwest;" parent="UJgr32r0x14f-edrb7Fj-45" vertex="1">
          <mxGeometry y="34" width="160" height="26" as="geometry" />
        </mxCell>
        <mxCell id="VLZR5v5O_BQbN2B3aegR-40" value="afficher_info():str" style="text;align=left;verticalAlign=top;spacingLeft=4;spacingRight=4;overflow=hidden;rotatable=0;points=[[0,0.5],[1,0.5]];portConstraint=eastwest;" parent="UJgr32r0x14f-edrb7Fj-45" vertex="1">
          <mxGeometry y="60" width="160" height="26" as="geometry" />
        </mxCell>
        <mxCell id="UJgr32r0x14f-edrb7Fj-51" value="playlist_view" style="swimlane;fontStyle=0;align=center;verticalAlign=top;childLayout=stackLayout;horizontal=1;startSize=26;horizontalStack=0;resizeParent=1;resizeLast=0;collapsible=1;marginBottom=0;rounded=0;shadow=0;strokeWidth=1;" parent="UJgr32r0x14f-edrb7Fj-38" vertex="1">
          <mxGeometry x="20" y="300" width="160" height="86" as="geometry">
            <mxRectangle x="340" y="380" width="170" height="26" as="alternateBounds" />
          </mxGeometry>
        </mxCell>
        <mxCell id="UJgr32r0x14f-edrb7Fj-53" value="" style="line;html=1;strokeWidth=1;align=left;verticalAlign=middle;spacingTop=-1;spacingLeft=3;spacingRight=3;rotatable=0;labelPosition=right;points=[];portConstraint=eastwest;" parent="UJgr32r0x14f-edrb7Fj-51" vertex="1">
          <mxGeometry y="26" width="160" height="8" as="geometry" />
        </mxCell>
        <mxCell id="VLZR5v5O_BQbN2B3aegR-37" value="choix()" style="text;align=left;verticalAlign=top;spacingLeft=4;spacingRight=4;overflow=hidden;rotatable=0;points=[[0,0.5],[1,0.5]];portConstraint=eastwest;" parent="UJgr32r0x14f-edrb7Fj-51" vertex="1">
          <mxGeometry y="34" width="160" height="26" as="geometry" />
        </mxCell>
        <mxCell id="VLZR5v5O_BQbN2B3aegR-42" value="afficher_info():str" style="text;align=left;verticalAlign=top;spacingLeft=4;spacingRight=4;overflow=hidden;rotatable=0;points=[[0,0.5],[1,0.5]];portConstraint=eastwest;" parent="UJgr32r0x14f-edrb7Fj-51" vertex="1">
          <mxGeometry y="60" width="160" height="26" as="geometry" />
        </mxCell>
        <mxCell id="UJgr32r0x14f-edrb7Fj-54" value="API" style="swimlane;whiteSpace=wrap;html=1;" parent="WIyWlLk6GJQsqaUBKTNV-1" vertex="1">
          <mxGeometry x="1170" y="670" width="360" height="530" as="geometry">
            <mxRectangle x="1170" y="670" width="60" height="30" as="alternateBounds" />
          </mxGeometry>
        </mxCell>
        <mxCell id="UJgr32r0x14f-edrb7Fj-5" value="&lt;&lt;singleton&gt;&gt; Freesound API" style="swimlane;fontStyle=2;align=center;verticalAlign=top;childLayout=stackLayout;horizontal=1;startSize=26;horizontalStack=0;resizeParent=1;resizeLast=0;collapsible=1;marginBottom=0;rounded=0;shadow=0;strokeWidth=1;" parent="UJgr32r0x14f-edrb7Fj-54" vertex="1">
          <mxGeometry x="60" y="332" width="216" height="166" as="geometry">
            <mxRectangle x="230" y="140" width="160" height="26" as="alternateBounds" />
          </mxGeometry>
        </mxCell>
        <mxCell id="UJgr32r0x14f-edrb7Fj-6" value="url_API : str" style="text;align=left;verticalAlign=top;spacingLeft=4;spacingRight=4;overflow=hidden;rotatable=0;points=[[0,0.5],[1,0.5]];portConstraint=eastwest;" parent="UJgr32r0x14f-edrb7Fj-5" vertex="1">
          <mxGeometry y="26" width="216" height="24" as="geometry" />
        </mxCell>
        <mxCell id="UJgr32r0x14f-edrb7Fj-10" value="" style="line;html=1;strokeWidth=1;align=left;verticalAlign=middle;spacingTop=-1;spacingLeft=3;spacingRight=3;rotatable=0;labelPosition=right;points=[];portConstraint=eastwest;" parent="UJgr32r0x14f-edrb7Fj-5" vertex="1">
          <mxGeometry y="50" width="216" height="16" as="geometry" />
        </mxCell>
        <mxCell id="UJgr32r0x14f-edrb7Fj-11" value="recherche_son( text) : json" style="text;align=left;verticalAlign=top;spacingLeft=4;spacingRight=4;overflow=hidden;rotatable=0;points=[[0,0.5],[1,0.5]];portConstraint=eastwest;rounded=0;shadow=0;html=0;" parent="UJgr32r0x14f-edrb7Fj-5" vertex="1">
          <mxGeometry y="66" width="216" height="26" as="geometry" />
        </mxCell>
        <mxCell id="UJgr32r0x14f-edrb7Fj-12" value="recherche_avancee (text) :json" style="text;align=left;verticalAlign=top;spacingLeft=4;spacingRight=4;overflow=hidden;rotatable=0;points=[[0,0.5],[1,0.5]];portConstraint=eastwest;" parent="UJgr32r0x14f-edrb7Fj-5" vertex="1">
          <mxGeometry y="92" width="216" height="28" as="geometry" />
        </mxCell>
        <mxCell id="k4YyRH8g6qEMDZz-mZ2C-24" value="telecharger(id_son) : path" style="text;align=left;verticalAlign=top;spacingLeft=4;spacingRight=4;overflow=hidden;rotatable=0;points=[[0,0.5],[1,0.5]];portConstraint=eastwest;rounded=0;shadow=0;html=0;" parent="UJgr32r0x14f-edrb7Fj-5" vertex="1">
          <mxGeometry y="120" width="216" height="26" as="geometry" />
        </mxCell>
        <mxCell id="UJgr32r0x14f-edrb7Fj-13" value="API_OAuth2" style="swimlane;fontStyle=2;align=center;verticalAlign=top;childLayout=stackLayout;horizontal=1;startSize=26;horizontalStack=0;resizeParent=1;resizeLast=0;collapsible=1;marginBottom=0;rounded=0;shadow=0;strokeWidth=1;" parent="UJgr32r0x14f-edrb7Fj-54" vertex="1">
          <mxGeometry x="88" y="80" width="160" height="126" as="geometry">
            <mxRectangle x="230" y="140" width="160" height="26" as="alternateBounds" />
          </mxGeometry>
        </mxCell>
        <mxCell id="UJgr32r0x14f-edrb7Fj-14" value="_tokenOAuth2 : str" style="text;align=left;verticalAlign=top;spacingLeft=4;spacingRight=4;overflow=hidden;rotatable=0;points=[[0,0.5],[1,0.5]];portConstraint=eastwest;" parent="UJgr32r0x14f-edrb7Fj-13" vertex="1">
          <mxGeometry y="26" width="160" height="26" as="geometry" />
        </mxCell>
        <mxCell id="UJgr32r0x14f-edrb7Fj-18" value="" style="line;html=1;strokeWidth=1;align=left;verticalAlign=middle;spacingTop=-1;spacingLeft=3;spacingRight=3;rotatable=0;labelPosition=right;points=[];portConstraint=eastwest;" parent="UJgr32r0x14f-edrb7Fj-13" vertex="1">
          <mxGeometry y="52" width="160" height="16" as="geometry" />
        </mxCell>
        <mxCell id="UJgr32r0x14f-edrb7Fj-19" value="_step12OAuth2() : none" style="text;align=left;verticalAlign=top;spacingLeft=4;spacingRight=4;overflow=hidden;rotatable=0;points=[[0,0.5],[1,0.5]];portConstraint=eastwest;rounded=0;shadow=0;html=0;" parent="UJgr32r0x14f-edrb7Fj-13" vertex="1">
          <mxGeometry y="68" width="160" height="26" as="geometry" />
        </mxCell>
        <mxCell id="UJgr32r0x14f-edrb7Fj-20" value="a2ioauth() : str" style="text;align=left;verticalAlign=top;spacingLeft=4;spacingRight=4;overflow=hidden;rotatable=0;points=[[0,0.5],[1,0.5]];portConstraint=eastwest;" parent="UJgr32r0x14f-edrb7Fj-13" vertex="1">
          <mxGeometry y="94" width="160" height="32" as="geometry" />
        </mxCell>
        <mxCell id="UJgr32r0x14f-edrb7Fj-104" style="edgeStyle=orthogonalEdgeStyle;rounded=0;orthogonalLoop=1;jettySize=auto;html=1;endArrow=diamond;endFill=0;dashed=1;dashPattern=8 8;" parent="UJgr32r0x14f-edrb7Fj-54" source="UJgr32r0x14f-edrb7Fj-5" target="UJgr32r0x14f-edrb7Fj-13" edge="1">
          <mxGeometry relative="1" as="geometry">
            <mxPoint x="170" y="210" as="targetPoint" />
          </mxGeometry>
        </mxCell>
        <mxCell id="UJgr32r0x14f-edrb7Fj-70" value="DAO" style="swimlane;whiteSpace=wrap;html=1;" parent="WIyWlLk6GJQsqaUBKTNV-1" vertex="1">
          <mxGeometry x="-290" y="100" width="440" height="820" as="geometry" />
        </mxCell>
        <mxCell id="UJgr32r0x14f-edrb7Fj-71" value="&lt;&lt;singleton&gt;&gt;connexion_bdd" style="swimlane;fontStyle=2;align=center;verticalAlign=top;childLayout=stackLayout;horizontal=1;startSize=26;horizontalStack=0;resizeParent=1;resizeLast=0;collapsible=1;marginBottom=0;rounded=0;shadow=0;strokeWidth=1;" parent="UJgr32r0x14f-edrb7Fj-70" vertex="1">
          <mxGeometry x="20" y="650" width="180" height="115" as="geometry">
            <mxRectangle x="230" y="140" width="160" height="26" as="alternateBounds" />
          </mxGeometry>
        </mxCell>
        <mxCell id="UJgr32r0x14f-edrb7Fj-77" value="__connection : Connection" style="text;align=left;verticalAlign=top;spacingLeft=4;spacingRight=4;overflow=hidden;rotatable=0;points=[[0,0.5],[1,0.5]];portConstraint=eastwest;rounded=0;shadow=0;html=0;" parent="UJgr32r0x14f-edrb7Fj-71" vertex="1">
          <mxGeometry y="26" width="180" height="26" as="geometry" />
        </mxCell>
        <mxCell id="UJgr32r0x14f-edrb7Fj-76" value="" style="line;html=1;strokeWidth=1;align=left;verticalAlign=middle;spacingTop=-1;spacingLeft=3;spacingRight=3;rotatable=0;labelPosition=right;points=[];portConstraint=eastwest;" parent="UJgr32r0x14f-edrb7Fj-71" vertex="1">
          <mxGeometry y="52" width="180" height="16" as="geometry" />
        </mxCell>
        <mxCell id="VLZR5v5O_BQbN2B3aegR-22" value="_db_connection(): Connection" style="text;align=left;verticalAlign=top;spacingLeft=4;spacingRight=4;overflow=hidden;rotatable=0;points=[[0,0.5],[1,0.5]];portConstraint=eastwest;rounded=0;shadow=0;html=0;" parent="UJgr32r0x14f-edrb7Fj-71" vertex="1">
          <mxGeometry y="68" width="180" height="26" as="geometry" />
        </mxCell>
        <mxCell id="UJgr32r0x14f-edrb7Fj-82" value="utilisateur_DAO" style="swimlane;fontStyle=2;align=center;verticalAlign=top;childLayout=stackLayout;horizontal=1;startSize=26;horizontalStack=0;resizeParent=1;resizeLast=0;collapsible=1;marginBottom=0;rounded=0;shadow=0;strokeWidth=1;" parent="UJgr32r0x14f-edrb7Fj-70" vertex="1">
          <mxGeometry x="50" y="110" width="300" height="196" as="geometry">
            <mxRectangle x="230" y="140" width="160" height="26" as="alternateBounds" />
          </mxGeometry>
        </mxCell>
        <mxCell id="UJgr32r0x14f-edrb7Fj-83" value="" style="line;html=1;strokeWidth=1;align=left;verticalAlign=middle;spacingTop=-1;spacingLeft=3;spacingRight=3;rotatable=0;labelPosition=right;points=[];portConstraint=eastwest;" parent="UJgr32r0x14f-edrb7Fj-82" vertex="1">
          <mxGeometry y="26" width="300" height="16" as="geometry" />
        </mxCell>
        <mxCell id="UJgr32r0x14f-edrb7Fj-84" value="ajouter_utilisateur(id, mdp, dd, ddc) : bool" style="text;align=left;verticalAlign=top;spacingLeft=4;spacingRight=4;overflow=hidden;rotatable=0;points=[[0,0.5],[1,0.5]];portConstraint=eastwest;rounded=0;shadow=0;html=0;" parent="UJgr32r0x14f-edrb7Fj-82" vertex="1">
          <mxGeometry y="42" width="300" height="26" as="geometry" />
        </mxCell>
        <mxCell id="UJgr32r0x14f-edrb7Fj-85" value="get_utilisateur(id) : bool" style="text;align=left;verticalAlign=top;spacingLeft=4;spacingRight=4;overflow=hidden;rotatable=0;points=[[0,0.5],[1,0.5]];portConstraint=eastwest;" parent="UJgr32r0x14f-edrb7Fj-82" vertex="1">
          <mxGeometry y="68" width="300" height="32" as="geometry" />
        </mxCell>
        <mxCell id="UJgr32r0x14f-edrb7Fj-86" value="get_all_utilisateur() : list(utilisateur)" style="text;align=left;verticalAlign=top;spacingLeft=4;spacingRight=4;overflow=hidden;rotatable=0;points=[[0,0.5],[1,0.5]];portConstraint=eastwest;" parent="UJgr32r0x14f-edrb7Fj-82" vertex="1">
          <mxGeometry y="100" width="300" height="32" as="geometry" />
        </mxCell>
        <mxCell id="k4YyRH8g6qEMDZz-mZ2C-1" value="modifier_utilisateur(dict) : bool" style="text;align=left;verticalAlign=top;spacingLeft=4;spacingRight=4;overflow=hidden;rotatable=0;points=[[0,0.5],[1,0.5]];portConstraint=eastwest;" parent="UJgr32r0x14f-edrb7Fj-82" vertex="1">
          <mxGeometry y="132" width="300" height="32" as="geometry" />
        </mxCell>
        <mxCell id="UJgr32r0x14f-edrb7Fj-87" value="supprimer_utilisateur(id) : bool" style="text;align=left;verticalAlign=top;spacingLeft=4;spacingRight=4;overflow=hidden;rotatable=0;points=[[0,0.5],[1,0.5]];portConstraint=eastwest;" parent="UJgr32r0x14f-edrb7Fj-82" vertex="1">
          <mxGeometry y="164" width="300" height="32" as="geometry" />
        </mxCell>
        <mxCell id="Eq6MTy8cBDpBbfUrAy4F-8" style="edgeStyle=orthogonalEdgeStyle;rounded=0;orthogonalLoop=1;jettySize=auto;html=1;entryX=1;entryY=0.5;entryDx=0;entryDy=0;" parent="UJgr32r0x14f-edrb7Fj-70" source="UJgr32r0x14f-edrb7Fj-95" target="UJgr32r0x14f-edrb7Fj-71" edge="1">
          <mxGeometry relative="1" as="geometry" />
        </mxCell>
        <mxCell id="UJgr32r0x14f-edrb7Fj-95" value="son_DAO" style="swimlane;fontStyle=2;align=center;verticalAlign=top;childLayout=stackLayout;horizontal=1;startSize=26;horizontalStack=0;resizeParent=1;resizeLast=0;collapsible=1;marginBottom=0;rounded=0;shadow=0;strokeWidth=1;" parent="UJgr32r0x14f-edrb7Fj-70" vertex="1">
          <mxGeometry x="244" y="617.5" width="160" height="180" as="geometry">
            <mxRectangle x="230" y="140" width="160" height="26" as="alternateBounds" />
          </mxGeometry>
        </mxCell>
        <mxCell id="UJgr32r0x14f-edrb7Fj-96" value="" style="line;html=1;strokeWidth=1;align=left;verticalAlign=middle;spacingTop=-1;spacingLeft=3;spacingRight=3;rotatable=0;labelPosition=right;points=[];portConstraint=eastwest;" parent="UJgr32r0x14f-edrb7Fj-95" vertex="1">
          <mxGeometry y="26" width="160" height="16" as="geometry" />
        </mxCell>
        <mxCell id="UJgr32r0x14f-edrb7Fj-97" value="ajouter_son(Son) :bool" style="text;align=left;verticalAlign=top;spacingLeft=4;spacingRight=4;overflow=hidden;rotatable=0;points=[[0,0.5],[1,0.5]];portConstraint=eastwest;rounded=0;shadow=0;html=0;" parent="UJgr32r0x14f-edrb7Fj-95" vertex="1">
          <mxGeometry y="42" width="160" height="26" as="geometry" />
        </mxCell>
        <mxCell id="UJgr32r0x14f-edrb7Fj-98" value="get_son(id_son) : bool" style="text;align=left;verticalAlign=top;spacingLeft=4;spacingRight=4;overflow=hidden;rotatable=0;points=[[0,0.5],[1,0.5]];portConstraint=eastwest;" parent="UJgr32r0x14f-edrb7Fj-95" vertex="1">
          <mxGeometry y="68" width="160" height="32" as="geometry" />
        </mxCell>
        <mxCell id="UJgr32r0x14f-edrb7Fj-99" value="get_all_son(): list(Son)" style="text;align=left;verticalAlign=top;spacingLeft=4;spacingRight=4;overflow=hidden;rotatable=0;points=[[0,0.5],[1,0.5]];portConstraint=eastwest;" parent="UJgr32r0x14f-edrb7Fj-95" vertex="1">
          <mxGeometry y="100" width="160" height="32" as="geometry" />
        </mxCell>
        <mxCell id="UJgr32r0x14f-edrb7Fj-100" value="supprimer_son(id_son): bool" style="text;align=left;verticalAlign=top;spacingLeft=4;spacingRight=4;overflow=hidden;rotatable=0;points=[[0,0.5],[1,0.5]];portConstraint=eastwest;" parent="UJgr32r0x14f-edrb7Fj-95" vertex="1">
          <mxGeometry y="132" width="160" height="32" as="geometry" />
        </mxCell>
        <mxCell id="UJgr32r0x14f-edrb7Fj-25" value="Playlist_DAO" style="swimlane;fontStyle=0;align=center;verticalAlign=top;childLayout=stackLayout;horizontal=1;startSize=26;horizontalStack=0;resizeParent=1;resizeLast=0;collapsible=1;marginBottom=0;rounded=0;shadow=0;strokeWidth=1;" parent="UJgr32r0x14f-edrb7Fj-70" vertex="1">
          <mxGeometry x="150" y="410" width="200" height="164" as="geometry">
            <mxRectangle x="130" y="380" width="160" height="26" as="alternateBounds" />
          </mxGeometry>
        </mxCell>
        <mxCell id="UJgr32r0x14f-edrb7Fj-27" value="" style="line;html=1;strokeWidth=1;align=left;verticalAlign=middle;spacingTop=-1;spacingLeft=3;spacingRight=3;rotatable=0;labelPosition=right;points=[];portConstraint=eastwest;" parent="UJgr32r0x14f-edrb7Fj-25" vertex="1">
          <mxGeometry y="26" width="200" height="8" as="geometry" />
        </mxCell>
        <mxCell id="UJgr32r0x14f-edrb7Fj-30" value="ajouter_playlist(Playlist) : bool" style="text;align=left;verticalAlign=top;spacingLeft=4;spacingRight=4;overflow=hidden;rotatable=0;points=[[0,0.5],[1,0.5]];portConstraint=eastwest;" parent="UJgr32r0x14f-edrb7Fj-25" vertex="1">
          <mxGeometry y="34" width="200" height="26" as="geometry" />
        </mxCell>
        <mxCell id="UJgr32r0x14f-edrb7Fj-133" value="get_playlist(id_playlist) : Playlist" style="text;align=left;verticalAlign=top;spacingLeft=4;spacingRight=4;overflow=hidden;rotatable=0;points=[[0,0.5],[1,0.5]];portConstraint=eastwest;" parent="UJgr32r0x14f-edrb7Fj-25" vertex="1">
          <mxGeometry y="60" width="200" height="26" as="geometry" />
        </mxCell>
        <mxCell id="k4YyRH8g6qEMDZz-mZ2C-0" value="get_all_playlist(): list(Playlist)" style="text;align=left;verticalAlign=top;spacingLeft=4;spacingRight=4;overflow=hidden;rotatable=0;points=[[0,0.5],[1,0.5]];portConstraint=eastwest;" parent="UJgr32r0x14f-edrb7Fj-25" vertex="1">
          <mxGeometry y="86" width="200" height="26" as="geometry" />
        </mxCell>
        <mxCell id="UJgr32r0x14f-edrb7Fj-135" value="modifier_playlist(dict_modif) : bool" style="text;align=left;verticalAlign=top;spacingLeft=4;spacingRight=4;overflow=hidden;rotatable=0;points=[[0,0.5],[1,0.5]];portConstraint=eastwest;" parent="UJgr32r0x14f-edrb7Fj-25" vertex="1">
          <mxGeometry y="112" width="200" height="26" as="geometry" />
        </mxCell>
        <mxCell id="UJgr32r0x14f-edrb7Fj-134" value="supprimer_playlist(id_plalist : bool" style="text;align=left;verticalAlign=top;spacingLeft=4;spacingRight=4;overflow=hidden;rotatable=0;points=[[0,0.5],[1,0.5]];portConstraint=eastwest;" parent="UJgr32r0x14f-edrb7Fj-25" vertex="1">
          <mxGeometry y="138" width="200" height="26" as="geometry" />
        </mxCell>
        <mxCell id="Eq6MTy8cBDpBbfUrAy4F-2" style="edgeStyle=orthogonalEdgeStyle;rounded=0;orthogonalLoop=1;jettySize=auto;html=1;entryX=0.5;entryY=0;entryDx=0;entryDy=0;" parent="UJgr32r0x14f-edrb7Fj-70" source="k4YyRH8g6qEMDZz-mZ2C-0" target="UJgr32r0x14f-edrb7Fj-71" edge="1">
          <mxGeometry relative="1" as="geometry" />
        </mxCell>
        <mxCell id="Eq6MTy8cBDpBbfUrAy4F-7" style="edgeStyle=orthogonalEdgeStyle;rounded=0;orthogonalLoop=1;jettySize=auto;html=1;entryX=0.054;entryY=0.006;entryDx=0;entryDy=0;entryPerimeter=0;" parent="UJgr32r0x14f-edrb7Fj-70" source="UJgr32r0x14f-edrb7Fj-87" target="UJgr32r0x14f-edrb7Fj-71" edge="1">
          <mxGeometry relative="1" as="geometry" />
        </mxCell>
        <mxCell id="UJgr32r0x14f-edrb7Fj-88" value="service/object" style="swimlane;whiteSpace=wrap;html=1;" parent="WIyWlLk6GJQsqaUBKTNV-1" vertex="1">
          <mxGeometry x="150" y="80" width="1020" height="1180" as="geometry" />
        </mxCell>
        <mxCell id="k4YyRH8g6qEMDZz-mZ2C-4" value="Son" style="swimlane;fontStyle=2;align=center;verticalAlign=top;childLayout=stackLayout;horizontal=1;startSize=26;horizontalStack=0;resizeParent=1;resizeLast=0;collapsible=1;marginBottom=0;rounded=0;shadow=0;strokeWidth=1;" parent="UJgr32r0x14f-edrb7Fj-88" vertex="1">
          <mxGeometry x="350" y="850" width="160" height="170" as="geometry">
            <mxRectangle x="230" y="140" width="160" height="26" as="alternateBounds" />
          </mxGeometry>
        </mxCell>
        <mxCell id="k4YyRH8g6qEMDZz-mZ2C-5" value="id : int" style="text;align=left;verticalAlign=top;spacingLeft=4;spacingRight=4;overflow=hidden;rotatable=0;points=[[0,0.5],[1,0.5]];portConstraint=eastwest;rounded=0;shadow=0;html=0;" parent="k4YyRH8g6qEMDZz-mZ2C-4" vertex="1">
          <mxGeometry y="26" width="160" height="26" as="geometry" />
        </mxCell>
        <mxCell id="k4YyRH8g6qEMDZz-mZ2C-6" value="name : str" style="text;align=left;verticalAlign=top;spacingLeft=4;spacingRight=4;overflow=hidden;rotatable=0;points=[[0,0.5],[1,0.5]];portConstraint=eastwest;rounded=0;shadow=0;html=0;" parent="k4YyRH8g6qEMDZz-mZ2C-4" vertex="1">
          <mxGeometry y="52" width="160" height="26" as="geometry" />
        </mxCell>
        <mxCell id="k4YyRH8g6qEMDZz-mZ2C-7" value="tags : list[str]" style="text;align=left;verticalAlign=top;spacingLeft=4;spacingRight=4;overflow=hidden;rotatable=0;points=[[0,0.5],[1,0.5]];portConstraint=eastwest;rounded=0;shadow=0;html=0;" parent="k4YyRH8g6qEMDZz-mZ2C-4" vertex="1">
          <mxGeometry y="78" width="160" height="26" as="geometry" />
        </mxCell>
        <mxCell id="k4YyRH8g6qEMDZz-mZ2C-8" value="" style="line;html=1;strokeWidth=1;align=left;verticalAlign=middle;spacingTop=-1;spacingLeft=3;spacingRight=3;rotatable=0;labelPosition=right;points=[];portConstraint=eastwest;" parent="k4YyRH8g6qEMDZz-mZ2C-4" vertex="1">
          <mxGeometry y="104" width="160" height="8" as="geometry" />
        </mxCell>
        <mxCell id="k4YyRH8g6qEMDZz-mZ2C-9" value="jouer() : Player" style="text;align=left;verticalAlign=top;spacingLeft=4;spacingRight=4;overflow=hidden;rotatable=0;points=[[0,0.5],[1,0.5]];portConstraint=eastwest;" parent="k4YyRH8g6qEMDZz-mZ2C-4" vertex="1">
          <mxGeometry y="112" width="160" height="26" as="geometry" />
        </mxCell>
        <mxCell id="k4YyRH8g6qEMDZz-mZ2C-10" value="jouer_en_boucle() :Player" style="text;align=left;verticalAlign=top;spacingLeft=4;spacingRight=4;overflow=hidden;rotatable=0;points=[[0,0.5],[1,0.5]];portConstraint=eastwest;" parent="k4YyRH8g6qEMDZz-mZ2C-4" vertex="1">
          <mxGeometry y="138" width="160" height="26" as="geometry" />
        </mxCell>
        <mxCell id="VLZR5v5O_BQbN2B3aegR-53" style="edgeStyle=orthogonalEdgeStyle;rounded=0;orthogonalLoop=1;jettySize=auto;html=1;endArrow=diamond;endFill=1;exitX=1;exitY=0.5;exitDx=0;exitDy=0;entryX=0.75;entryY=1;entryDx=0;entryDy=0;" parent="UJgr32r0x14f-edrb7Fj-88" source="k4YyRH8g6qEMDZz-mZ2C-5" target="k4YyRH8g6qEMDZz-mZ2C-11" edge="1">
          <mxGeometry relative="1" as="geometry">
            <mxPoint x="446.5600000000002" y="907.96" as="sourcePoint" />
            <mxPoint x="669.0000000000002" y="670.0000000000002" as="targetPoint" />
            <Array as="points">
              <mxPoint x="880" y="889" />
            </Array>
          </mxGeometry>
        </mxCell>
        <mxCell id="k4YyRH8g6qEMDZz-mZ2C-11" value="Playlist" style="swimlane;fontStyle=0;align=center;verticalAlign=top;childLayout=stackLayout;horizontal=1;startSize=26;horizontalStack=0;resizeParent=1;resizeLast=0;collapsible=1;marginBottom=0;rounded=0;shadow=0;strokeWidth=1;" parent="UJgr32r0x14f-edrb7Fj-88" vertex="1">
          <mxGeometry x="700" y="270" width="240" height="250" as="geometry">
            <mxRectangle x="550" y="140" width="160" height="26" as="alternateBounds" />
          </mxGeometry>
        </mxCell>
        <mxCell id="k4YyRH8g6qEMDZz-mZ2C-12" value="utilisateur : Utilisateur" style="text;align=left;verticalAlign=top;spacingLeft=4;spacingRight=4;overflow=hidden;rotatable=0;points=[[0,0.5],[1,0.5]];portConstraint=eastwest;" parent="k4YyRH8g6qEMDZz-mZ2C-11" vertex="1">
          <mxGeometry y="26" width="240" height="26" as="geometry" />
        </mxCell>
        <mxCell id="k4YyRH8g6qEMDZz-mZ2C-13" value="id_playlist : int" style="text;align=left;verticalAlign=top;spacingLeft=4;spacingRight=4;overflow=hidden;rotatable=0;points=[[0,0.5],[1,0.5]];portConstraint=eastwest;" parent="k4YyRH8g6qEMDZz-mZ2C-11" vertex="1">
          <mxGeometry y="52" width="240" height="26" as="geometry" />
        </mxCell>
        <mxCell id="k4YyRH8g6qEMDZz-mZ2C-14" value="nom_playlist : str" style="text;align=left;verticalAlign=top;spacingLeft=4;spacingRight=4;overflow=hidden;rotatable=0;points=[[0,0.5],[1,0.5]];portConstraint=eastwest;" parent="k4YyRH8g6qEMDZz-mZ2C-11" vertex="1">
          <mxGeometry y="78" width="240" height="26" as="geometry" />
        </mxCell>
        <mxCell id="k4YyRH8g6qEMDZz-mZ2C-15" value="dict_son : [[son : Son, ordre:int]]" style="text;align=left;verticalAlign=top;spacingLeft=4;spacingRight=4;overflow=hidden;rotatable=0;points=[[0,0.5],[1,0.5]];portConstraint=eastwest;" parent="k4YyRH8g6qEMDZz-mZ2C-11" vertex="1">
          <mxGeometry y="104" width="240" height="26" as="geometry" />
        </mxCell>
        <mxCell id="k4YyRH8g6qEMDZz-mZ2C-16" value="" style="line;html=1;strokeWidth=1;align=left;verticalAlign=middle;spacingTop=-1;spacingLeft=3;spacingRight=3;rotatable=0;labelPosition=right;points=[];portConstraint=eastwest;" parent="k4YyRH8g6qEMDZz-mZ2C-11" vertex="1">
          <mxGeometry y="130" width="240" height="8" as="geometry" />
        </mxCell>
        <mxCell id="k4YyRH8g6qEMDZz-mZ2C-17" value="ajouter_son(son : Son, ordre : int)" style="text;align=left;verticalAlign=top;spacingLeft=4;spacingRight=4;overflow=hidden;rotatable=0;points=[[0,0.5],[1,0.5]];portConstraint=eastwest;" parent="k4YyRH8g6qEMDZz-mZ2C-11" vertex="1">
          <mxGeometry y="138" width="240" height="26" as="geometry" />
        </mxCell>
        <mxCell id="k4YyRH8g6qEMDZz-mZ2C-18" value="supprimer_son(son : Son) : bool" style="text;align=left;verticalAlign=top;spacingLeft=4;spacingRight=4;overflow=hidden;rotatable=0;points=[[0,0.5],[1,0.5]];portConstraint=eastwest;" parent="k4YyRH8g6qEMDZz-mZ2C-11" vertex="1">
          <mxGeometry y="164" width="240" height="26" as="geometry" />
        </mxCell>
        <mxCell id="k4YyRH8g6qEMDZz-mZ2C-19" value="changer_ordre(son: Son, ordre : int) : bool " style="text;align=left;verticalAlign=top;spacingLeft=4;spacingRight=4;overflow=hidden;rotatable=0;points=[[0,0.5],[1,0.5]];portConstraint=eastwest;" parent="k4YyRH8g6qEMDZz-mZ2C-11" vertex="1">
          <mxGeometry y="190" width="240" height="26" as="geometry" />
        </mxCell>
        <mxCell id="k4YyRH8g6qEMDZz-mZ2C-20" value="changer_nom (nv_nom) : bool" style="text;align=left;verticalAlign=top;spacingLeft=4;spacingRight=4;overflow=hidden;rotatable=0;points=[[0,0.5],[1,0.5]];portConstraint=eastwest;" parent="k4YyRH8g6qEMDZz-mZ2C-11" vertex="1">
          <mxGeometry y="216" width="240" height="26" as="geometry" />
        </mxCell>
        <mxCell id="zkfFHV4jXpPFQw0GAbJ--0" value="utilisateur" style="swimlane;fontStyle=2;align=center;verticalAlign=top;childLayout=stackLayout;horizontal=1;startSize=26;horizontalStack=0;resizeParent=1;resizeLast=0;collapsible=1;marginBottom=0;rounded=0;shadow=0;strokeWidth=1;" parent="UJgr32r0x14f-edrb7Fj-88" vertex="1">
          <mxGeometry x="380" y="50" width="250" height="290" as="geometry">
            <mxRectangle x="230" y="140" width="160" height="26" as="alternateBounds" />
          </mxGeometry>
        </mxCell>
        <mxCell id="zkfFHV4jXpPFQw0GAbJ--1" value="_id : str" style="text;align=left;verticalAlign=top;spacingLeft=4;spacingRight=4;overflow=hidden;rotatable=0;points=[[0,0.5],[1,0.5]];portConstraint=eastwest;" parent="zkfFHV4jXpPFQw0GAbJ--0" vertex="1">
          <mxGeometry y="26" width="250" height="26" as="geometry" />
        </mxCell>
        <mxCell id="zkfFHV4jXpPFQw0GAbJ--3" value="_datedebut : date&#xa;" style="text;align=left;verticalAlign=top;spacingLeft=4;spacingRight=4;overflow=hidden;rotatable=0;points=[[0,0.5],[1,0.5]];portConstraint=eastwest;rounded=0;shadow=0;html=0;" parent="zkfFHV4jXpPFQw0GAbJ--0" vertex="1">
          <mxGeometry y="52" width="250" height="26" as="geometry" />
        </mxCell>
        <mxCell id="UJgr32r0x14f-edrb7Fj-0" value="_datederniereco : date" style="text;align=left;verticalAlign=top;spacingLeft=4;spacingRight=4;overflow=hidden;rotatable=0;points=[[0,0.5],[1,0.5]];portConstraint=eastwest;rounded=0;shadow=0;html=0;" parent="zkfFHV4jXpPFQw0GAbJ--0" vertex="1">
          <mxGeometry y="78" width="250" height="26" as="geometry" />
        </mxCell>
        <mxCell id="VLZR5v5O_BQbN2B3aegR-24" value="_playlist : list(Playlist)" style="text;align=left;verticalAlign=top;spacingLeft=4;spacingRight=4;overflow=hidden;rotatable=0;points=[[0,0.5],[1,0.5]];portConstraint=eastwest;rounded=0;shadow=0;html=0;" parent="zkfFHV4jXpPFQw0GAbJ--0" vertex="1">
          <mxGeometry y="104" width="250" height="26" as="geometry" />
        </mxCell>
        <mxCell id="zkfFHV4jXpPFQw0GAbJ--4" value="" style="line;html=1;strokeWidth=1;align=left;verticalAlign=middle;spacingTop=-1;spacingLeft=3;spacingRight=3;rotatable=0;labelPosition=right;points=[];portConstraint=eastwest;" parent="zkfFHV4jXpPFQw0GAbJ--0" vertex="1">
          <mxGeometry y="130" width="250" height="16" as="geometry" />
        </mxCell>
        <mxCell id="VLZR5v5O_BQbN2B3aegR-21" value="créer_compte(id, mdp, dd, ddc) : bool" style="text;align=left;verticalAlign=top;spacingLeft=4;spacingRight=4;overflow=hidden;rotatable=0;points=[[0,0.5],[1,0.5]];portConstraint=eastwest;rounded=0;shadow=0;html=0;" parent="zkfFHV4jXpPFQw0GAbJ--0" vertex="1">
          <mxGeometry y="146" width="250" height="26" as="geometry" />
        </mxCell>
        <mxCell id="VLZR5v5O_BQbN2B3aegR-32" value="créer_playlist(Son, ordre) : Playlist" style="text;align=left;verticalAlign=top;spacingLeft=4;spacingRight=4;overflow=hidden;rotatable=0;points=[[0,0.5],[1,0.5]];portConstraint=eastwest;rounded=0;shadow=0;html=0;" parent="zkfFHV4jXpPFQw0GAbJ--0" vertex="1">
          <mxGeometry y="172" width="250" height="26" as="geometry" />
        </mxCell>
        <mxCell id="k4YyRH8g6qEMDZz-mZ2C-25" value="supprimer_playlist(id_playlist) : bool" style="text;align=left;verticalAlign=top;spacingLeft=4;spacingRight=4;overflow=hidden;rotatable=0;points=[[0,0.5],[1,0.5]];portConstraint=eastwest;" parent="zkfFHV4jXpPFQw0GAbJ--0" vertex="1">
          <mxGeometry y="198" width="250" height="32" as="geometry" />
        </mxCell>
        <mxCell id="VLZR5v5O_BQbN2B3aegR-23" value="copier_playlist(id_playlist): bool" style="text;align=left;verticalAlign=top;spacingLeft=4;spacingRight=4;overflow=hidden;rotatable=0;points=[[0,0.5],[1,0.5]];portConstraint=eastwest;" parent="zkfFHV4jXpPFQw0GAbJ--0" vertex="1">
          <mxGeometry y="230" width="250" height="26" as="geometry" />
        </mxCell>
        <mxCell id="VLZR5v5O_BQbN2B3aegR-52" style="edgeStyle=orthogonalEdgeStyle;rounded=0;orthogonalLoop=1;jettySize=auto;html=1;endArrow=none;endFill=0;exitX=1;exitY=0.5;exitDx=0;exitDy=0;" parent="UJgr32r0x14f-edrb7Fj-88" source="k4YyRH8g6qEMDZz-mZ2C-25" target="k4YyRH8g6qEMDZz-mZ2C-11" edge="1">
          <mxGeometry relative="1" as="geometry" />
        </mxCell>
        <mxCell id="VLZR5v5O_BQbN2B3aegR-61" value="1" style="text;html=1;align=center;verticalAlign=middle;resizable=0;points=[];autosize=1;strokeColor=none;fillColor=none;" parent="UJgr32r0x14f-edrb7Fj-88" vertex="1">
          <mxGeometry x="630" y="260" width="30" height="30" as="geometry" />
        </mxCell>
        <mxCell id="VLZR5v5O_BQbN2B3aegR-62" value="*" style="text;html=1;align=center;verticalAlign=middle;resizable=0;points=[];autosize=1;strokeColor=none;fillColor=none;" parent="UJgr32r0x14f-edrb7Fj-88" vertex="1">
          <mxGeometry x="660" y="430" width="30" height="30" as="geometry" />
        </mxCell>
        <mxCell id="7O-AZKerB7MyMsO3pKYQ-2" value="PlaylistService" style="swimlane;fontStyle=0;align=center;verticalAlign=top;childLayout=stackLayout;horizontal=1;startSize=26;horizontalStack=0;resizeParent=1;resizeLast=0;collapsible=1;marginBottom=0;rounded=0;shadow=0;strokeWidth=1;" parent="UJgr32r0x14f-edrb7Fj-88" vertex="1">
          <mxGeometry x="220" y="580" width="330" height="240" as="geometry">
            <mxRectangle x="550" y="140" width="160" height="26" as="alternateBounds" />
          </mxGeometry>
        </mxCell>
        <mxCell id="7O-AZKerB7MyMsO3pKYQ-3" value="playlist : Playlist" style="text;align=left;verticalAlign=top;spacingLeft=4;spacingRight=4;overflow=hidden;rotatable=0;points=[[0,0.5],[1,0.5]];portConstraint=eastwest;" parent="7O-AZKerB7MyMsO3pKYQ-2" vertex="1">
          <mxGeometry y="26" width="330" height="26" as="geometry" />
        </mxCell>
        <mxCell id="7O-AZKerB7MyMsO3pKYQ-7" value="" style="line;html=1;strokeWidth=1;align=left;verticalAlign=middle;spacingTop=-1;spacingLeft=3;spacingRight=3;rotatable=0;labelPosition=right;points=[];portConstraint=eastwest;" parent="7O-AZKerB7MyMsO3pKYQ-2" vertex="1">
          <mxGeometry y="52" width="330" height="8" as="geometry" />
        </mxCell>
        <mxCell id="7O-AZKerB7MyMsO3pKYQ-13" value="+ obtenir_playlist(id_playlist: int) : Playlist&#xa;+ supprimer_playlist(id_playlist: int) : bool&#xa;+ modifier_playlist(id_playlist: int, playlist: Playlist) : bool&#xa;+ ajouter_playlist(uid: str, playlist: Playlist) : bool&#xa;+ changer_ordre_sons(id_playlist: int, ordre: List[int]) : bool&#xa;+ retirer_son_de_playlist(id_playlist: int, id_son: int) : bool&#xa;+ changer_ordre_sons(id_playlist: int, ordre: List[int]) : bool&#xa;+ copier_playlist(id_playlist: int, nv_uid: str) : bool&#xa;+ ajouter_son_a_playlist(son: Son)&#xa;+ changer_nom_playlist(nom :str)&#xa;+ jouer_en_boucle()&#xa;+ jouer() : Player" style="text;align=left;verticalAlign=top;spacingLeft=4;spacingRight=4;overflow=hidden;rotatable=0;points=[[0,0.5],[1,0.5]];portConstraint=eastwest;" parent="7O-AZKerB7MyMsO3pKYQ-2" vertex="1">
          <mxGeometry y="60" width="330" height="180" as="geometry" />
        </mxCell>
        <mxCell id="7O-AZKerB7MyMsO3pKYQ-23" style="edgeStyle=orthogonalEdgeStyle;rounded=0;orthogonalLoop=1;jettySize=auto;html=1;entryX=0.992;entryY=0.918;entryDx=0;entryDy=0;entryPerimeter=0;exitX=0.25;exitY=1;exitDx=0;exitDy=0;" parent="UJgr32r0x14f-edrb7Fj-88" source="k4YyRH8g6qEMDZz-mZ2C-11" target="7O-AZKerB7MyMsO3pKYQ-13" edge="1">
          <mxGeometry relative="1" as="geometry">
            <mxPoint x="480" y="660" as="sourcePoint" />
            <mxPoint x="440" y="801" as="targetPoint" />
          </mxGeometry>
        </mxCell>
        <mxCell id="7O-AZKerB7MyMsO3pKYQ-18" value="SonService" style="swimlane;fontStyle=0;align=center;verticalAlign=top;childLayout=stackLayout;horizontal=1;startSize=26;horizontalStack=0;resizeParent=1;resizeLast=0;collapsible=1;marginBottom=0;rounded=0;shadow=0;strokeWidth=1;" parent="UJgr32r0x14f-edrb7Fj-88" vertex="1">
          <mxGeometry x="20" y="940" width="290" height="200" as="geometry">
            <mxRectangle x="550" y="140" width="160" height="26" as="alternateBounds" />
          </mxGeometry>
        </mxCell>
        <mxCell id="7O-AZKerB7MyMsO3pKYQ-19" value="son : Son" style="text;align=left;verticalAlign=top;spacingLeft=4;spacingRight=4;overflow=hidden;rotatable=0;points=[[0,0.5],[1,0.5]];portConstraint=eastwest;" parent="7O-AZKerB7MyMsO3pKYQ-18" vertex="1">
          <mxGeometry y="26" width="290" height="26" as="geometry" />
        </mxCell>
        <mxCell id="7O-AZKerB7MyMsO3pKYQ-20" value="" style="line;html=1;strokeWidth=1;align=left;verticalAlign=middle;spacingTop=-1;spacingLeft=3;spacingRight=3;rotatable=0;labelPosition=right;points=[];portConstraint=eastwest;" parent="7O-AZKerB7MyMsO3pKYQ-18" vertex="1">
          <mxGeometry y="52" width="290" height="8" as="geometry" />
        </mxCell>
        <mxCell id="7O-AZKerB7MyMsO3pKYQ-21" value="+ ajouter_son(son: Son) : bool&#xa;+ supprimer_son(id_son: int) : bool&#xa;+ obtenir_son(id_son: int) : Son&#xa;+ lister_sons() : List[Son]&#xa;+ superposer_sons(id_sons: List[int]) : Son&#xa;+ changer_tags_son(id_son: int, tags: List[str]) : bool&#xa;+ jouer_son(id_son: int) : Player&#xa;+ jouer_en_boucle(id_son: int) : Player&#xa;+ telecharger_son(id_son: int) : str(path)&#xa;   " style="text;align=left;verticalAlign=top;spacingLeft=4;spacingRight=4;overflow=hidden;rotatable=0;points=[[0,0.5],[1,0.5]];portConstraint=eastwest;" parent="7O-AZKerB7MyMsO3pKYQ-18" vertex="1">
          <mxGeometry y="60" width="290" height="140" as="geometry" />
        </mxCell>
        <mxCell id="7O-AZKerB7MyMsO3pKYQ-25" style="edgeStyle=orthogonalEdgeStyle;rounded=0;orthogonalLoop=1;jettySize=auto;html=1;entryX=1;entryY=0.5;entryDx=0;entryDy=0;exitX=0.75;exitY=1;exitDx=0;exitDy=0;" parent="UJgr32r0x14f-edrb7Fj-88" source="k4YyRH8g6qEMDZz-mZ2C-4" target="7O-AZKerB7MyMsO3pKYQ-21" edge="1">
          <mxGeometry relative="1" as="geometry">
            <mxPoint x="30" y="989" as="sourcePoint" />
            <mxPoint x="-146" y="808" as="targetPoint" />
          </mxGeometry>
        </mxCell>
        <mxCell id="7O-AZKerB7MyMsO3pKYQ-14" value="UtilisateurService" style="swimlane;fontStyle=0;align=center;verticalAlign=top;childLayout=stackLayout;horizontal=1;startSize=26;horizontalStack=0;resizeParent=1;resizeLast=0;collapsible=1;marginBottom=0;rounded=0;shadow=0;strokeWidth=1;" parent="UJgr32r0x14f-edrb7Fj-88" vertex="1">
          <mxGeometry x="40" y="270" width="290" height="200" as="geometry">
            <mxRectangle x="550" y="140" width="160" height="26" as="alternateBounds" />
          </mxGeometry>
        </mxCell>
        <mxCell id="7O-AZKerB7MyMsO3pKYQ-15" value="utilisateur : Utilisateur" style="text;align=left;verticalAlign=top;spacingLeft=4;spacingRight=4;overflow=hidden;rotatable=0;points=[[0,0.5],[1,0.5]];portConstraint=eastwest;" parent="7O-AZKerB7MyMsO3pKYQ-14" vertex="1">
          <mxGeometry y="26" width="290" height="26" as="geometry" />
        </mxCell>
        <mxCell id="7O-AZKerB7MyMsO3pKYQ-16" value="" style="line;html=1;strokeWidth=1;align=left;verticalAlign=middle;spacingTop=-1;spacingLeft=3;spacingRight=3;rotatable=0;labelPosition=right;points=[];portConstraint=eastwest;" parent="7O-AZKerB7MyMsO3pKYQ-14" vertex="1">
          <mxGeometry y="52" width="290" height="8" as="geometry" />
        </mxCell>
        <mxCell id="7O-AZKerB7MyMsO3pKYQ-17" value="+ creer_utilisateur(uid: str, mdp: str, ...) : bool&#xa;+ modifier_utilisateur(uid: str, ...) : bool&#xa;+ supprimer_utilisateur(uid: str) : bool&#xa;+ obtenir_utilisateur(uid: str) : Utilisateur&#xa;+ connecter_utilisateur(uid: str, mdp: str) : bool&#xa;+ deconnecter_utilisateur(uid: str) : bool&#xa;+ lister_playlists(uid: str) : List[Playlist]" style="text;align=left;verticalAlign=top;spacingLeft=4;spacingRight=4;overflow=hidden;rotatable=0;points=[[0,0.5],[1,0.5]];portConstraint=eastwest;" parent="7O-AZKerB7MyMsO3pKYQ-14" vertex="1">
          <mxGeometry y="60" width="290" height="120" as="geometry" />
        </mxCell>
        <mxCell id="7O-AZKerB7MyMsO3pKYQ-30" style="edgeStyle=orthogonalEdgeStyle;rounded=0;orthogonalLoop=1;jettySize=auto;html=1;exitX=0.5;exitY=1;exitDx=0;exitDy=0;entryX=1;entryY=0.5;entryDx=0;entryDy=0;" parent="UJgr32r0x14f-edrb7Fj-88" source="zkfFHV4jXpPFQw0GAbJ--0" target="7O-AZKerB7MyMsO3pKYQ-17" edge="1">
          <mxGeometry relative="1" as="geometry">
            <mxPoint x="390" y="430" as="sourcePoint" />
            <mxPoint x="565" y="380" as="targetPoint" />
          </mxGeometry>
        </mxCell>
        <mxCell id="VLZR5v5O_BQbN2B3aegR-51" style="edgeStyle=orthogonalEdgeStyle;rounded=0;orthogonalLoop=1;jettySize=auto;html=1;exitX=1;exitY=0.5;exitDx=0;exitDy=0;" parent="WIyWlLk6GJQsqaUBKTNV-1" source="UJgr32r0x14f-edrb7Fj-85" target="zkfFHV4jXpPFQw0GAbJ--0" edge="1">
          <mxGeometry relative="1" as="geometry" />
        </mxCell>
        <mxCell id="VLZR5v5O_BQbN2B3aegR-57" style="edgeStyle=orthogonalEdgeStyle;rounded=0;orthogonalLoop=1;jettySize=auto;html=1;dashed=1;" parent="WIyWlLk6GJQsqaUBKTNV-1" source="UJgr32r0x14f-edrb7Fj-45" edge="1">
          <mxGeometry relative="1" as="geometry">
            <mxPoint x="780" y="309.0588235294117" as="targetPoint" />
          </mxGeometry>
        </mxCell>
        <mxCell id="VLZR5v5O_BQbN2B3aegR-59" style="edgeStyle=orthogonalEdgeStyle;rounded=0;orthogonalLoop=1;jettySize=auto;html=1;exitX=0.5;exitY=1;exitDx=0;exitDy=0;entryX=0;entryY=0.5;entryDx=0;entryDy=0;" parent="WIyWlLk6GJQsqaUBKTNV-1" source="UJgr32r0x14f-edrb7Fj-95" target="k4YyRH8g6qEMDZz-mZ2C-5" edge="1">
          <mxGeometry relative="1" as="geometry">
            <mxPoint x="470" y="840" as="sourcePoint" />
            <Array as="points">
              <mxPoint x="34" y="910" />
              <mxPoint x="417" y="910" />
              <mxPoint x="417" y="989" />
            </Array>
          </mxGeometry>
        </mxCell>
        <mxCell id="VLZR5v5O_BQbN2B3aegR-60" style="edgeStyle=orthogonalEdgeStyle;rounded=0;orthogonalLoop=1;jettySize=auto;html=1;exitX=1;exitY=0.5;exitDx=0;exitDy=0;entryX=0;entryY=0.769;entryDx=0;entryDy=0;entryPerimeter=0;" parent="WIyWlLk6GJQsqaUBKTNV-1" source="UJgr32r0x14f-edrb7Fj-25" target="k4YyRH8g6qEMDZz-mZ2C-19" edge="1">
          <mxGeometry relative="1" as="geometry">
            <Array as="points">
              <mxPoint x="60" y="610" />
              <mxPoint x="510" y="610" />
              <mxPoint x="510" y="560" />
            </Array>
            <mxPoint x="790" y="560" as="targetPoint" />
          </mxGeometry>
        </mxCell>
        <mxCell id="VLZR5v5O_BQbN2B3aegR-63" style="edgeStyle=orthogonalEdgeStyle;rounded=0;orthogonalLoop=1;jettySize=auto;html=1;entryX=0;entryY=0.5;entryDx=0;entryDy=0;endArrow=none;endFill=0;exitX=0.996;exitY=0.872;exitDx=0;exitDy=0;exitPerimeter=0;" parent="WIyWlLk6GJQsqaUBKTNV-1" source="k4YyRH8g6qEMDZz-mZ2C-7" target="UJgr32r0x14f-edrb7Fj-11" edge="1">
          <mxGeometry relative="1" as="geometry">
            <Array as="points">
              <mxPoint x="940" y="1081" />
              <mxPoint x="1230" y="1080" />
            </Array>
          </mxGeometry>
        </mxCell>
        <mxCell id="VLZR5v5O_BQbN2B3aegR-69" style="edgeStyle=orthogonalEdgeStyle;rounded=0;orthogonalLoop=1;jettySize=auto;html=1;dashed=1;entryX=1.01;entryY=0.054;entryDx=0;entryDy=0;entryPerimeter=0;" parent="WIyWlLk6GJQsqaUBKTNV-1" source="UJgr32r0x14f-edrb7Fj-51" target="k4YyRH8g6qEMDZz-mZ2C-11" edge="1">
          <mxGeometry relative="1" as="geometry">
            <Array as="points">
              <mxPoint x="1120" y="443" />
              <mxPoint x="1120" y="527" />
            </Array>
            <mxPoint x="1010" y="590" as="targetPoint" />
          </mxGeometry>
        </mxCell>
        <mxCell id="Eq6MTy8cBDpBbfUrAy4F-0" value="ontacts&lt;div&gt;&lt;br&gt;&lt;/div&gt;" style="edgeStyle=none;orthogonalLoop=1;jettySize=auto;html=1;rounded=0;" parent="WIyWlLk6GJQsqaUBKTNV-1" edge="1">
          <mxGeometry width="80" relative="1" as="geometry">
            <mxPoint x="1240" y="310" as="sourcePoint" />
            <mxPoint x="1320" y="310" as="targetPoint" />
            <Array as="points" />
          </mxGeometry>
        </mxCell>
        <mxCell id="7O-AZKerB7MyMsO3pKYQ-22" style="edgeStyle=orthogonalEdgeStyle;rounded=0;orthogonalLoop=1;jettySize=auto;html=1;exitX=0.25;exitY=0;exitDx=0;exitDy=0;entryX=1;entryY=0.5;entryDx=0;entryDy=0;" parent="WIyWlLk6GJQsqaUBKTNV-1" source="7O-AZKerB7MyMsO3pKYQ-2" target="UJgr32r0x14f-edrb7Fj-135" edge="1">
          <mxGeometry relative="1" as="geometry">
            <mxPoint x="180" y="619" as="sourcePoint" />
            <mxPoint x="440" y="650" as="targetPoint" />
          </mxGeometry>
        </mxCell>
        <mxCell id="7O-AZKerB7MyMsO3pKYQ-24" style="edgeStyle=orthogonalEdgeStyle;rounded=0;orthogonalLoop=1;jettySize=auto;html=1;entryX=0.25;entryY=1;entryDx=0;entryDy=0;exitX=0;exitY=0.5;exitDx=0;exitDy=0;" parent="WIyWlLk6GJQsqaUBKTNV-1" source="7O-AZKerB7MyMsO3pKYQ-19" target="UJgr32r0x14f-edrb7Fj-95" edge="1">
          <mxGeometry relative="1" as="geometry">
            <mxPoint x="100" y="970" as="sourcePoint" />
            <mxPoint x="60" y="1111" as="targetPoint" />
          </mxGeometry>
        </mxCell>
        <mxCell id="7O-AZKerB7MyMsO3pKYQ-31" style="edgeStyle=orthogonalEdgeStyle;rounded=0;orthogonalLoop=1;jettySize=auto;html=1;exitX=0;exitY=0.5;exitDx=0;exitDy=0;entryX=1;entryY=0.5;entryDx=0;entryDy=0;" parent="WIyWlLk6GJQsqaUBKTNV-1" source="7O-AZKerB7MyMsO3pKYQ-17" target="UJgr32r0x14f-edrb7Fj-86" edge="1">
          <mxGeometry relative="1" as="geometry">
            <mxPoint x="490" y="500" as="sourcePoint" />
            <mxPoint x="665" y="450" as="targetPoint" />
          </mxGeometry>
        </mxCell>
      </root>
    </mxGraphModel>
  </diagram>
</mxfile>
